<svg width="1440" height="3123" viewBox="0 0 1440 3123" fill="none" xmlns="http://www.w3.org/2000/svg">
<rect x="-7" y="-5.00024" width="1440" height="2572" fill="black"/>
<path d="M425.899 523.439L689.11 718.67L820.406 1107.9L820.406 1108.51L1083.62 1303.74L1214.91 1692.97L1214.91 1693.59L1478.12 1888.82L1566.69 2150.77L1566.69 2142.74L1479.98 1886.35L1479.98 1885.73L1216.77 1690.5L1085.47 1301.27L1085.47 1300.66L822.264 1105.42L690.968 716.199L690.968 715.581L427.757 520.35L296.462 131.124L296.462 130.506L123.052 1.99972L117.478 1.99972L294.604 134.213L425.899 523.439ZM393.076 572.247L656.286 767.478L787.582 1156.7L787.582 1157.32L1050.79 1352.55L1182.09 1741.78L1182.09 1742.4L1445.92 1938.25L1567.31 2297.82L1567.31 2289.78L1447.78 1936.39L1447.78 1935.77L1184.57 1740.54L1053.27 1351.32L1053.27 1350.7L790.059 1155.47L658.764 766.242L658.764 765.624L395.553 570.394L264.257 181.167L264.257 180.549L25.1999 3.23532L19.6261 3.23532L262.399 183.02L393.076 572.247ZM-265.261 377.634L-2.05005 572.865L129.246 962.091L129.246 962.708L392.456 1157.94L523.752 1547.17L523.752 1547.78L786.963 1743.01L918.258 2132.24L918.258 2132.86L1181.47 2328.09L1312.76 2717.31L1312.76 2717.93L1565.45 2905.13L1565.45 2901.43L1314 2715.46L1182.71 2326.24L1182.71 2325.62L919.497 2130.39L788.201 1741.16L788.201 1740.54L524.991 1545.31L393.695 1156.09L393.695 1155.47L130.484 960.237L-0.811459 571.011L-0.811459 570.394L-263.403 375.163L-389.125 3.23534L-391.602 3.23534L-265.261 377.634ZM-232.437 328.826L30.7739 524.057L162.07 913.283L162.07 913.901L425.28 1109.13L556.576 1498.36L556.576 1498.98L819.787 1694.21L951.082 2083.43L951.082 2084.05L1214.29 2279.28L1345.59 2668.51L1345.59 2669.13L1565.45 2832.23L1565.45 2828.52L1347.45 2666.65L1216.15 2277.43L1216.15 2276.81L952.94 2081.58L821.645 1692.35L821.645 1691.74L558.434 1496.5L427.138 1107.28L427.138 1106.66L163.928 911.429L32.6318 522.203L32.6318 521.586L-230.579 326.355L-339.579 3.23534L-342.056 3.23534L-232.437 328.826ZM721.934 85.4052L985.145 280.636L1116.44 669.862L1116.44 670.48L1379.65 865.711L1510.95 1254.94L1510.95 1255.55L1566.69 1296.95L1566.69 1293.24L1512.8 1253.7L1381.51 864.475L1381.51 863.858L1118.3 668.627L987.003 279.401L987.003 278.783L723.792 83.5517L697.161 3.85346L694.684 3.85346L721.934 85.4052ZM755.377 36.5976L1018.59 231.828L1149.88 621.054L1149.88 621.672L1413.09 816.903L1544.39 1206.13L1544.39 1206.75L1566.69 1223.43L1566.69 1219.72L1545.63 1204.28L1414.33 815.05L1414.33 814.432L1151.12 619.201L1019.83 229.975L1019.83 229.357L756.616 34.1262L746.088 3.23529L743.61 3.23529L755.377 36.5976ZM491.547 425.824L754.758 621.054L886.054 1010.28L886.054 1010.9L1149.26 1206.13L1280.56 1595.36L1280.56 1595.97L1543.77 1791.2L1566.07 1857.93L1566.07 1849.9L1545.63 1788.73L1545.63 1788.11L1282.42 1592.88L1151.12 1203.66L1151.12 1203.04L887.912 1007.81L756.616 618.583L756.616 617.965L493.405 422.735L362.11 33.5085L362.11 32.8906L320.615 1.99971L315.041 1.99971L360.252 35.362L491.547 425.824ZM458.723 474.632L721.934 669.862L853.23 1059.09L853.23 1059.71L1117.06 1255.55L1248.36 1644.78L1248.36 1645.4L1511.57 1840.63L1567.3 2004.97L1567.3 1996.94L1514.04 1838.16L1514.04 1837.54L1250.83 1642.31L1119.54 1253.08L1119.54 1252.47L856.326 1057.23L725.031 668.009L725.031 667.391L461.82 472.16L330.524 82.934L330.524 82.3161L223.382 2.61764L217.808 2.61764L328.666 84.7876L458.723 474.632ZM-100.522 134.213L162.689 329.444L293.985 718.67L293.985 719.288L557.195 914.519L688.491 1303.74L688.491 1304.36L951.701 1499.59L1083 1888.82L1083 1889.44L1346.21 2084.67L1477.5 2473.89L1477.5 2474.51L1566.07 2540L1566.07 2536.29L1479.36 2472.04L1348.07 2082.81L1348.07 2082.2L1084.86 1886.97L953.559 1497.74L953.559 1497.12L690.349 1301.89L559.053 912.665L559.053 912.047L295.842 716.816L164.547 327.59L164.547 326.973L-98.6639 131.742L-142.016 3.23533L-144.493 3.23533L-100.522 134.213ZM-34.874 36.5976L228.337 231.828L359.632 621.054L359.632 621.672L622.843 816.903L754.139 1206.13L754.139 1206.75L1017.35 1401.98L1148.65 1791.2L1148.65 1791.82L1411.86 1987.05L1543.15 2376.28L1543.15 2376.9L1565.45 2393.58L1565.45 2389.87L1544.39 2374.43L1413.09 1985.2L1413.09 1984.58L1149.88 1789.35L1018.59 1400.12L1018.59 1399.51L755.377 1204.28L624.082 815.05L624.082 814.432L360.871 619.201L229.575 229.975L229.575 229.357L-33.6354 34.1262L-44.1638 3.23533L-46.6411 3.23533L-34.874 36.5976ZM-67.698 85.4052L195.513 280.636L326.808 669.862L326.808 670.48L590.638 865.093L721.934 1254.32L721.934 1254.94L985.764 1450.17L1117.06 1839.39L1117.06 1840.01L1380.27 2035.24L1511.57 2424.47L1511.57 2425.09L1567.31 2466.48L1567.31 2462.77L1513.42 2423.23L1382.13 2034.01L1382.13 2033.39L1118.92 1838.16L987.622 1448.93L987.622 1448.31L724.411 1253.08L593.116 863.858L593.116 863.24L329.905 668.009L198.609 278.783L198.609 278.165L-65.84 82.9341L-92.4707 3.23533L-94.948 3.23533L-67.698 85.4052ZM-199.613 280.636L64.2171 475.249L195.513 864.475L195.513 865.093L458.723 1060.32L590.638 1450.17L590.638 1450.79L853.849 1646.02L985.145 2035.24L985.145 2035.86L1248.36 2231.09L1379.65 2620.32L1379.65 2620.94L1566.69 2759.33L1566.69 2755.62L1381.51 2618.46L1250.21 2229.24L1250.21 2228.62L987.003 2033.39L855.707 1644.16L855.707 1643.55L592.496 1448.31L461.201 1059.09L461.201 1058.47L197.99 863.24L66.6944 474.014L66.6944 473.396L-196.516 278.165L-289.414 3.8535L-291.891 3.8535L-199.613 280.636ZM-298.085 425.824L-34.874 621.672L96.4217 1010.9L96.4217 1011.52L359.632 1206.75L490.928 1595.97L490.928 1596.59L754.139 1791.82L885.434 2181.05L885.434 2181.67L1149.88 2376.9L1281.18 2766.12L1281.18 2766.74L1544.39 2961.97L1566.69 3028.7L1566.69 3020.66L1546.25 2959.5L1546.25 2958.88L1283.04 2763.65L1151.74 2374.43L1151.74 2373.81L888.531 2178.58L757.235 1789.35L757.235 1788.73L494.025 1593.5L362.729 1204.28L362.729 1203.66L99.5183 1008.43L-31.7774 619.201L-31.7774 618.583L-294.988 423.352L-426.284 34.1262L-426.284 33.5085L-467.778 2.61767L-474.591 2.61767L-429.38 35.9797L-298.085 425.824ZM-166.17 231.828L97.041 427.059L228.337 816.285L228.337 816.903L491.547 1011.52L622.843 1400.74L622.843 1401.36L886.054 1596.59L1017.35 1985.82L1017.35 1986.43L1280.56 2181.67L1411.86 2570.89L1411.86 2571.51L1567.31 2685.81L1567.31 2682.1L1414.95 2569.04L1283.66 2179.81L1283.66 2179.19L1020.45 1983.96L889.15 1594.74L889.15 1594.12L625.94 1398.89L494.644 1009.66L494.644 1009.05L231.433 813.814L100.138 424.588L100.138 423.97L-164.931 228.739L-241.107 2.61766L-243.585 2.61766L-166.17 231.828ZM689.11 134.213L952.321 329.444L1083.62 718.67L1083.62 719.288L1346.83 914.518L1478.12 1303.74L1478.12 1304.36L1567.3 1369.85L1567.3 1366.14L1480.6 1301.89L1349.3 912.665L1349.3 912.047L1086.09 716.816L954.798 327.59L954.798 326.973L691.587 131.742L648.235 3.23529L645.758 3.2353L689.11 134.213ZM-462.824 85.4053L-331.528 474.632L-331.528 475.249L-68.3173 670.48L62.9785 1059.71L62.9785 1060.32L326.189 1255.55L457.485 1644.78L457.485 1645.4L720.695 1840.63L851.991 2229.86L851.991 2230.47L1117.06 2425.7L1248.36 2814.93L1248.36 2815.55L1511.57 3010.78L1567.31 3175.12L1567.31 3167.09L1514.04 3008.31L1514.04 3007.69L1250.83 2812.46L1119.54 2423.23L1119.54 2422.62L856.326 2227.38L725.031 1838.16L725.031 1837.54L461.82 1642.31L330.524 1253.08L330.524 1252.47L67.3137 1057.23L-63.982 668.009L-63.982 667.391L-327.193 472.16L-458.488 82.9341L-458.488 82.3162L-565.631 2.61767L-573.682 2.61767L-462.824 85.4053ZM-133.346 183.02L129.865 378.252L261.161 767.478L261.161 768.096L524.371 963.326L655.667 1352.55L655.667 1353.17L918.878 1548.4L1050.17 1937.63L1050.17 1938.25L1313.38 2133.48L1444.68 2522.7L1444.68 2523.32L1566.07 2612.9L1566.07 2609.2L1446.54 2520.85L1315.24 2131.62L1315.24 2131L1052.03 1935.77L920.736 1546.55L920.736 1545.93L657.525 1350.7L526.229 961.473L526.229 960.855L263.019 765.624L131.723 376.398L131.723 375.78L-131.488 180.549L-191.562 3.23533L-194.039 3.23533L-133.346 183.02ZM1380.27 280.636L1567.3 419.028L1567.3 415.321L1382.13 278.165L1289.23 3.85343L1286.75 3.85343L1380.27 280.636ZM1413.09 231.828L1567.3 346.125L1567.3 342.418L1414.95 229.357L1338.78 3.23526L1336.3 3.23526L1413.09 231.828ZM1314.62 377.634L1567.3 564.833L1567.3 561.126L1315.86 375.163L1190.14 3.23527L1187.66 3.23527L1314.62 377.634ZM1445.92 183.02L1567.3 272.604L1567.3 268.898L1447.78 180.549L1387.7 3.23526L1385.22 3.23526L1445.92 183.02ZM1281.18 425.824L1544.39 621.054L1566.69 687.779L1566.69 679.747L1546.25 618.583L1546.25 617.965L1283.04 422.735L1151.74 33.5085L1151.74 32.8905L1110.25 1.99968L1104.67 1.99968L1149.88 35.362L1281.18 425.824ZM1545.01 36.5976L1567.3 53.2787L1567.3 49.5717L1546.25 34.1261L1535.72 3.23526L1533.24 3.23526L1545.01 36.5976ZM1512.19 85.4052L1567.92 126.799L1567.92 123.092L1514.04 83.5517L1487.41 3.85342L1484.94 3.85342L1512.19 85.4052ZM656.286 183.02L919.497 378.252L1050.79 767.478L1050.79 768.096L1314 963.326L1445.3 1352.55L1445.3 1353.17L1566.69 1442.75L1566.69 1439.05L1447.16 1350.7L1315.86 961.473L1315.86 960.855L1052.65 765.624L921.355 376.398L921.355 375.78L658.144 180.549L598.07 3.2353L595.593 3.2353L656.286 183.02ZM1479.36 134.213L1567.92 199.702L1567.92 195.995L1481.22 131.742L1437.87 3.23526L1435.39 3.23526L1479.36 134.213ZM1248.36 474.632L1511.57 669.862L1567.3 834.202L1567.3 826.171L1514.04 667.391L1514.04 666.773L1250.83 471.542L1119.54 82.3161L1119.54 81.6984L1012.39 1.99968L1006.82 1.99968L1117.06 85.4052L1248.36 474.632ZM557.814 328.826L821.025 524.057L952.321 913.283L952.321 913.901L1215.53 1109.13L1346.83 1498.36L1346.83 1498.98L1566.69 1662.08L1566.69 1658.37L1348.69 1496.5L1217.39 1107.28L1217.39 1106.66L954.179 911.429L822.883 522.203L822.883 521.586L559.672 326.355L450.672 3.2353L448.195 3.2353L557.814 328.826ZM623.462 231.828L886.673 427.059L1017.97 816.285L1017.97 816.903L1281.8 1011.52L1413.09 1400.74L1413.09 1401.36L1567.3 1515.66L1567.3 1511.95L1414.95 1398.89L1283.66 1009.66L1283.66 1009.05L1020.45 813.814L889.15 424.588L889.15 423.97L625.94 228.739L549.763 2.61762L547.286 2.61762L623.462 231.828ZM590.638 280.636L853.849 475.867L985.145 865.093L985.145 865.711L1248.36 1060.94L1379.65 1450.17L1379.65 1450.79L1566.69 1589.18L1566.69 1585.47L1381.51 1448.31L1250.21 1059.09L1250.21 1058.47L987.003 863.24L855.707 474.014L855.707 473.396L592.496 278.165L499.598 3.85347L497.121 3.85347L590.638 280.636ZM524.99 377.634L788.201 572.865L919.497 962.091L919.497 962.708L1182.71 1157.94L1314 1547.17L1314 1547.78L1566.69 1734.98L1566.69 1731.28L1315.24 1545.31L1183.95 1156.09L1183.95 1155.47L920.736 960.237L789.44 571.011L789.44 570.393L526.229 375.163L400.507 3.23531L398.03 3.23531L524.99 377.634ZM1215.53 523.439L1478.74 718.67L1567.3 980.625L1567.3 972.594L1480.6 716.199L1480.6 715.581L1217.39 520.35L1086.09 131.124L1086.09 130.506L912.684 1.99969L907.111 1.99969L1084.24 134.213L1215.53 523.439ZM1182.71 572.247L1445.92 767.478L1567.3 1127.05L1567.3 1119.02L1447.78 765.624L1447.78 765.007L1184.57 569.776L1053.27 180.549L1053.27 179.931L814.213 2.61761L808.639 2.61761L1051.41 182.403L1182.71 572.247ZM1347.45 328.826L1567.3 491.93L1567.3 488.223L1349.3 326.355L1240.3 3.23527L1237.83 3.23527L1347.45 328.826ZM295.843 3056.5L164.547 2667.27L164.547 2666.65L-98.6638 2471.42L-229.959 2082.2L-229.959 2081.58L-493.17 1886.35L-624.466 1497.12L-624.466 1496.5L-646.761 1479.82L-646.761 1483.53L-625.704 1498.98L-494.409 1888.2L-494.409 1888.82L-231.198 2084.05L-99.9024 2473.28L-99.9024 2473.89L163.308 2669.13L294.604 3058.35L294.604 3058.97L557.815 3254.2L568.343 3285.09L570.82 3285.09L559.673 3251.73L295.843 3056.5ZM625.32 3154.11L362.11 2958.88L230.814 2569.66L230.814 2569.04L-32.3966 2373.81L-163.692 1984.58L-163.692 1983.96L-426.903 1788.73L-558.199 1399.51L-558.199 1398.89L-648 1333.4L-648 1337.11L-561.295 1401.36L-430 1790.59L-430 1791.2L-166.789 1986.43L-35.4932 2375.66L-35.4932 2376.28L227.717 2571.51L359.013 2960.74L359.013 2961.35L622.224 3156.58L665.576 3285.09L668.053 3285.09L625.32 3154.11ZM855.707 2813.69L592.496 2618.46L461.201 2229.24L461.201 2228.62L197.99 2033.39L66.6944 1644.16L66.6944 1643.55L-196.516 1448.31L-327.812 1059.09L-327.812 1058.47L-592.261 862.622L-648 698.282L-648 706.314L-594.739 865.093L-594.739 865.711L-331.528 1060.94L-200.232 1450.17L-200.232 1450.79L64.2172 1645.4L195.513 2034.62L195.513 2035.24L458.723 2230.47L590.019 2619.7L590.019 2620.32L853.849 2815.55L985.145 3204.77L985.145 3205.39L1092.91 3285.09L1098.48 3285.09L987.003 3202.92L855.707 2813.69ZM822.883 2861.88L559.673 2666.65L428.377 2277.43L428.377 2276.81L165.166 2081.58L33.8705 1692.35L33.8705 1691.74L-229.34 1496.5L-360.636 1107.28L-360.636 1106.66L-623.847 911.429L-648 844.705L-648 852.737L-627.562 913.901L-627.562 914.519L-364.352 1109.75L-233.056 1498.98L-233.056 1499.59L30.1546 1694.82L161.45 2084.05L161.45 2084.67L424.661 2279.9L555.957 2669.13L555.957 2669.74L819.167 2864.97L950.463 3254.2L950.463 3254.82L991.957 3285.71L997.531 3285.71L952.321 3252.35L822.883 2861.88ZM-648 3185L-648 3192.42L-627.562 3253.58L-626.943 3254.2L-585.449 3285.09L-579.875 3285.09L-625.085 3251.73L-648 3185ZM723.792 3007.69L460.582 2813.08L329.286 2423.85L329.286 2423.23L66.0751 2228L-65.2206 1838.78L-65.2206 1838.16L-328.431 1642.93L-459.727 1253.7L-459.727 1253.08L-648 1114.07L-648 1117.78L-462.824 1254.94L-331.528 1644.16L-331.528 1644.78L-68.3172 1840.01L62.9785 2229.24L62.9785 2229.86L326.189 2425.09L457.485 2814.31L457.485 2814.93L720.696 3010.16L814.832 3285.09L817.309 3285.09L723.792 3007.69ZM690.968 3056.5L427.758 2861.27L296.462 2472.04L296.462 2471.42L33.2512 2276.19L-98.0445 1886.97L-98.0445 1886.35L-361.255 1691.12L-492.551 1301.89L-492.551 1301.27L-648 1187.59L-648 1191.3L-495.647 1304.36L-364.352 1693.59L-364.352 1694.21L-101.141 1889.44L30.1546 2278.66L30.1546 2279.28L293.365 2474.51L424.661 2863.74L424.661 2864.36L687.872 3059.59L765.286 3285.09L767.764 3285.09L690.968 3056.5ZM658.144 3105.31L394.934 2910.07L263.638 2520.85L263.638 2520.23L0.427265 2325L-130.868 1935.77L-130.868 1935.16L-395.318 1740.54L-526.613 1351.32L-526.613 1350.7L-648 1260.5L-648 1264.2L-528.471 1352.55L-397.176 1741.78L-397.176 1742.4L-133.346 1938.25L-2.04997 2327.47L-2.04997 2328.09L261.161 2523.32L392.456 2912.55L392.456 2913.16L655.667 3108.39L716.36 3285.09L718.838 3285.09L658.144 3105.31ZM1414.95 3154.11L1151.74 2958.88L1020.45 2569.66L1020.45 2569.04L757.235 2373.81L625.94 1984.58L625.94 1983.96L362.729 1788.73L231.433 1399.51L231.433 1398.89L-31.7774 1203.66L-163.073 814.432L-163.073 813.814L-426.284 618.583L-557.579 229.357L-557.579 228.739L-648 163.25L-648 166.957L-561.295 231.211L-430 620.437L-430 621.054L-166.789 816.285L-35.4933 1205.51L-35.4933 1206.13L227.717 1401.36L359.013 1790.59L359.013 1791.2L622.224 1986.43L753.519 2375.66L753.519 2376.28L1016.73 2571.51L1148.03 2960.74L1148.03 2961.35L1411.24 3156.58L1454.59 3285.09L1457.07 3285.09L1414.95 3154.11ZM1382.13 3202.92L1118.92 3007.69L987.622 2618.46L987.622 2617.85L724.411 2422.62L593.116 2033.39L593.116 2032.77L329.905 1837.54L198.609 1448.31L198.609 1447.7L-65.8399 1253.08L-197.136 863.858L-197.136 863.24L-460.346 668.009L-591.642 278.783L-591.642 278.165L-647.381 236.771L-647.381 240.478L-593.5 280.019L-462.204 669.245L-462.204 669.862L-198.994 865.093L-67.6979 1254.32L-67.6979 1254.94L195.513 1450.17L326.808 1839.39L326.808 1840.01L590.638 2035.24L721.934 2424.47L721.934 2425.09L985.145 2620.32L1116.44 3009.54L1116.44 3010.16L1379.65 3205.39L1407.52 3285.09L1410 3285.09L1382.13 3202.92ZM1086.09 3056.5L954.798 2667.27L954.798 2666.65L691.587 2471.42L560.292 2082.2L560.292 2081.58L297.081 1886.35L165.785 1497.12L165.785 1496.5L-97.4252 1301.27L-228.721 912.047L-228.721 911.429L-491.932 716.199L-623.227 326.973L-623.227 326.355L-645.523 309.674L-645.523 313.381L-624.466 328.826L-493.17 718.052L-493.17 718.67L-229.96 913.901L-98.6638 1303.13L-98.6638 1303.74L164.547 1498.98L295.842 1888.2L295.842 1888.82L559.053 2084.05L690.349 2473.28L690.349 2473.89L953.56 2669.13L1084.86 3058.35L1084.86 3058.97L1347.45 3254.2L1357.97 3285.09L1360.45 3285.09L1349.3 3251.73L1086.09 3056.5ZM888.531 2764.89L625.32 2569.66L494.025 2180.43L494.025 2179.81L230.814 1984.58L99.5183 1595.36L99.5183 1594.74L-164.931 1398.89L-296.227 1009.66L-296.227 1009.05L-559.437 813.814L-648 551.859L-648 559.89L-561.295 816.285L-561.295 816.903L-298.085 1011.52L-166.789 1400.74L-166.789 1401.36L96.4217 1596.59L227.717 1985.82L227.717 1986.43L359.632 2084.05L491.547 2181.67L622.843 2570.89L622.843 2571.51L886.054 2766.74L1017.35 3155.97L1017.35 3156.58L1191.38 3285.09L1196.95 3285.09L1020.45 3154.11L888.531 2764.89ZM1480.6 3056.5L1217.39 2861.27L1086.09 2472.04L1086.09 2471.42L822.883 2276.19L691.587 1886.97L691.587 1886.35L428.377 1691.12L297.081 1301.89L297.081 1301.27L33.8704 1106.04L-97.4252 716.816L-97.4252 716.199L-360.636 520.968L-491.932 131.742L-491.932 131.124L-648 17.4451L-648 21.1523L-495.647 134.213L-364.352 523.439L-364.352 524.057L-101.141 719.288L30.1546 1108.51L30.1546 1109.13L293.365 1304.36L424.661 1693.59L424.661 1694.21L687.872 1889.44L819.167 2278.66L819.167 2279.28L1082.38 2474.51L1213.67 2863.74L1213.67 2864.36L1476.88 3059.59L1555.54 3285.09L1558.02 3285.09L1480.6 3056.5ZM921.355 2716.08L658.144 2520.85L526.849 2131.62L526.849 2131L263.638 1935.77L132.342 1546.55L132.342 1545.93L-130.868 1350.7L-262.164 961.473L-262.164 960.855L-525.375 765.624L-648 406.053L-648 414.085L-528.471 767.478L-528.471 768.096L-265.261 963.326L-133.965 1352.55L-133.965 1353.17L129.246 1548.4L260.541 1937.63L260.541 1938.25L523.752 2133.48L655.048 2522.7L655.048 2523.32L918.258 2718.55L1049.55 3107.78L1049.55 3108.39L1290.47 3285.09L1296.04 3285.09L1053.27 3105.31L921.355 2716.08ZM756.616 2958.88L493.405 2763.65L362.11 2374.43L362.11 2373.81L98.899 2178.58L-32.3967 1789.35L-32.3967 1788.73L-295.607 1593.5L-426.903 1204.28L-426.903 1203.66L-648 1041.17L-648 1044.88L-430 1206.75L-298.704 1595.97L-298.704 1596.59L-34.8739 1791.82L96.4217 2181.05L96.4217 2181.67L360.252 2376.9L491.547 2766.12L491.547 2766.74L754.758 2961.97L864.378 3285.09L866.855 3285.09L756.616 2958.88ZM1447.78 3105.31L1184.57 2910.07L1053.27 2520.85L1053.27 2520.23L790.059 2325L658.764 1935.77L658.764 1935.16L395.553 1739.92L264.257 1350.7L264.257 1350.08L1.0466 1154.85L-130.249 765.624L-130.249 765.007L-393.46 569.776L-524.755 180.549L-524.755 179.931L-648 90.3481L-648 94.0549L-528.471 182.403L-397.176 571.629L-397.176 572.247L-133.965 767.478L-2.6694 1156.7L-2.6694 1157.32L260.541 1352.55L391.837 1741.78L391.837 1742.4L656.286 1938.25L787.582 2327.47L787.582 2328.09L1050.79 2523.32L1182.09 2912.55L1182.09 2913.16L1445.3 3108.39L1505.99 3285.09L1508.47 3285.09L1447.78 3105.31ZM592.496 3202.92L329.286 3007.69L197.99 2618.46L197.99 2617.85L-65.8399 2422.62L-197.136 2033.39L-197.136 2032.77L-460.346 1837.54L-591.642 1448.31L-591.642 1447.7L-647.381 1406.3L-647.381 1410.01L-594.119 1450.17L-462.824 1839.39L-462.824 1840.01L-199.613 2035.24L-68.3172 2424.47L-68.3172 2425.09L194.894 2620.32L326.189 3009.54L326.189 3010.16L590.639 3205.39L617.269 3285.09L619.746 3285.09L592.496 3202.92ZM-131.488 3105.31L-394.698 2910.07L-525.994 2520.85L-525.994 2520.23L-648 2430.65L-648 2434.35L-528.471 2522.7L-397.176 2911.93L-397.176 2912.55L-133.346 3107.78L-73.891 3285.09L-71.4137 3285.09L-131.488 3105.31ZM-65.8399 3007.69L-329.05 2812.46L-460.346 2423.23L-460.346 2422.62L-648 2284.22L-648 2287.93L-462.823 2425.09L-331.528 2814.31L-331.528 2814.93L-67.6978 3010.78L25.2001 3285.09L27.6774 3285.09L-65.8399 3007.69ZM-33.0159 2958.88L-296.227 2763.65L-427.522 2374.43L-427.522 2373.81L-648 2211.32L-648 2215.03L-430 2376.9L-298.085 2766.12L-298.085 2766.74L-34.8739 2961.97L74.1263 3285.09L76.6036 3285.09L-33.0159 2958.88ZM-98.6638 3056.5L-361.874 2861.27L-493.17 2472.04L-493.17 2471.42L-648 2357.13L-648 2360.83L-495.647 2473.89L-364.352 2863.12L-364.352 2863.74L-100.522 3058.97L-24.3455 3285.09L-21.8682 3285.09L-98.6638 3056.5ZM-0.192033 2910.69L-263.403 2715.46L-394.698 2326.24L-394.698 2325.62L-648 2137.8L-648 2142.13L-396.556 2328.09L-265.261 2717.32L-265.261 2717.93L-2.04994 2913.16L123.672 3285.09L126.149 3285.09L-0.192033 2910.69ZM-648 3038.58L-648 3046.61L-594.738 3204.77L-594.738 3205.39L-486.977 3285.09L-481.403 3285.09L-592.261 3202.92L-648 3038.58ZM-648 2745.73L-648 2753.77L-528.471 3107.78L-528.471 3108.39L-289.414 3285.09L-283.84 3285.09L-526.613 3105.31L-648 2745.73ZM-648 2892.16L-648 2900.19L-561.295 3155.97L-561.295 3156.58L-387.886 3285.09L-382.312 3285.09L-558.818 3154.11L-648 2892.16ZM33.2512 2861.88L-229.959 2666.65L-361.255 2277.43L-361.255 2276.81L-624.466 2081.58L-648 2014.85L-648 2022.89L-627.562 2084.05L-627.562 2084.67L-364.352 2279.9L-233.056 2669.13L-233.056 2669.74L30.1546 2864.97L161.45 3254.2L161.45 3254.82L202.945 3285.71L208.519 3285.71L163.308 3252.35L33.2512 2861.88ZM-164.931 3154.11L-428.142 2958.88L-559.437 2569.66L-559.437 2569.04L-648 2503.55L-648 2507.26L-561.295 2571.51L-430 2960.74L-430 2961.35L-166.17 3156.58L-122.817 3285.09L-120.34 3285.09L-164.931 3154.11ZM131.723 2716.08L-131.488 2520.85L-262.783 2131.62L-262.783 2131L-525.994 1935.77L-648 1576.2L-648 1584.23L-528.471 1937.63L-528.471 1938.25L-265.261 2133.48L-133.965 2522.7L-133.965 2523.32L129.246 2718.55L260.541 3107.78L260.541 3108.39L500.218 3285.09L505.792 3285.09L263.019 3105.31L131.723 2716.08ZM66.0752 2813.69L-197.755 2617.85L-329.051 2228.62L-329.051 2228L-592.261 2032.77L-648 1868.43L-648 1876.46L-594.738 2035.24L-594.738 2035.86L-331.528 2231.09L-200.232 2620.32L-200.232 2620.94L64.2172 2815.55L195.513 3204.77L195.513 3205.39L303.274 3285.09L308.848 3285.09L197.99 3202.92L66.0752 2813.69ZM98.899 2764.89L-164.931 2569.04L-296.227 2179.81L-296.227 2179.19L-559.437 1983.96L-648 1722.01L-648 1730.04L-561.295 1986.43L-561.295 1987.05L-298.085 2182.28L-166.789 2571.51L-166.789 2572.13L96.4217 2767.36L227.717 3156.58L227.717 3157.2L401.746 3285.09L407.32 3285.09L230.814 3154.11L98.899 2764.89ZM-197.755 3202.92L-460.965 3007.69L-592.261 2618.46L-592.261 2617.85L-648 2576.45L-648 2580.78L-594.119 2620.32L-462.823 3009.54L-462.823 3010.16L-199.613 3205.39L-172.363 3285.09L-169.885 3285.09L-197.755 3202.92ZM-493.789 3056.5L-625.085 2667.27L-625.085 2666.65L-647.381 2649.97L-647.381 2653.68L-626.324 2669.13L-495.028 3058.35L-495.028 3058.97L-232.437 3254.2L-221.908 3285.09L-219.431 3285.09L-230.579 3251.73L-493.789 3056.5ZM790.059 2910.69L526.849 2715.46L395.553 2326.24L395.553 2325.62L132.342 2130.39L1.04662 1741.16L1.04662 1740.54L-262.164 1545.31L-393.46 1156.09L-393.46 1155.47L-648 967.651L-648 971.358L-396.556 1157.32L-265.261 1546.55L-265.261 1547.17L-2.04999 1742.4L129.246 2131.62L129.246 2132.24L392.456 2327.47L523.752 2716.7L523.752 2717.32L786.963 2912.55L913.304 3285.09L915.781 3285.09L790.059 2910.69Z" fill="#CCCCCC"/>
</svg>
