<svg width="1440" height="3121" viewBox="0 0 1440 3121" fill="none" xmlns="http://www.w3.org/2000/svg">
<path d="M425.899 521.439L689.11 716.67L820.406 1105.9L820.406 1106.51L1083.62 1301.74L1214.91 1690.97L1214.91 1691.59L1478.12 1886.82L1566.69 2148.77L1566.69 2140.74L1479.98 1884.35L1479.98 1883.73L1216.77 1688.5L1085.47 1299.27L1085.47 1298.66L822.264 1103.42L690.968 714.199L690.968 713.581L427.757 518.35L296.462 129.124L296.462 128.506L123.052 -5.89414e-05L117.478 -5.86977e-05L294.604 132.213L425.899 521.439ZM393.076 570.247L656.286 765.478L787.582 1154.7L787.582 1155.32L1050.79 1350.55L1182.09 1739.78L1182.09 1740.4L1445.92 1936.25L1567.31 2295.82L1567.31 2287.78L1447.78 1934.39L1447.78 1933.77L1184.57 1738.54L1053.27 1349.32L1053.27 1348.7L790.059 1153.47L658.764 764.242L658.764 763.624L395.553 568.394L264.257 179.167L264.257 178.55L25.1999 1.23554L19.6261 1.23554L262.399 181.021L393.076 570.247ZM-265.261 375.634L-2.05005 570.865L129.246 960.091L129.246 960.709L392.456 1155.94L523.752 1545.17L523.752 1545.78L786.963 1741.01L918.258 2130.24L918.258 2130.86L1181.47 2326.09L1312.76 2715.32L1312.76 2715.93L1565.45 2903.13L1565.45 2899.43L1314 2713.46L1182.71 2324.24L1182.71 2323.62L919.497 2128.39L788.201 1739.16L788.201 1738.54L524.991 1543.31L393.695 1154.09L393.695 1153.47L130.484 958.237L-0.811459 569.011L-0.811459 568.394L-263.403 373.163L-389.125 1.23556L-391.602 1.23556L-265.261 375.634ZM-232.437 326.826L30.7739 522.057L162.07 911.283L162.07 911.901L425.28 1107.13L556.576 1496.36L556.576 1496.98L819.787 1692.21L951.082 2081.43L951.082 2082.05L1214.29 2277.28L1345.59 2666.51L1345.59 2667.13L1565.45 2830.23L1565.45 2826.52L1347.45 2664.65L1216.15 2275.43L1216.15 2274.81L952.94 2079.58L821.645 1690.35L821.645 1689.74L558.434 1494.5L427.138 1105.28L427.138 1104.66L163.928 909.429L32.6318 520.203L32.6318 519.586L-230.579 324.355L-339.579 1.23556L-342.056 1.23556L-232.437 326.826ZM721.934 83.4054L985.145 278.636L1116.44 667.862L1116.44 668.48L1379.65 863.711L1510.95 1252.94L1510.95 1253.55L1566.69 1294.95L1566.69 1291.24L1512.8 1251.7L1381.51 862.475L1381.51 861.858L1118.3 666.627L987.003 277.401L987.003 276.783L723.792 81.5519L697.161 1.85368L694.684 1.85368L721.934 83.4054ZM755.377 34.5978L1018.59 229.828L1149.88 619.054L1149.88 619.672L1413.09 814.903L1544.39 1204.13L1544.39 1204.75L1566.69 1221.43L1566.69 1217.72L1545.63 1202.28L1414.33 813.05L1414.33 812.432L1151.12 617.201L1019.83 227.975L1019.83 227.357L756.616 32.1264L746.088 1.23551L743.61 1.23551L755.377 34.5978ZM491.547 423.824L754.758 619.054L886.054 1008.28L886.054 1008.9L1149.26 1204.13L1280.56 1593.36L1280.56 1593.97L1543.77 1789.2L1566.07 1855.93L1566.07 1847.9L1545.63 1786.73L1545.63 1786.11L1282.42 1590.88L1151.12 1201.66L1151.12 1201.04L887.912 1005.81L756.616 616.583L756.616 615.965L493.405 420.735L362.11 31.5087L362.11 30.8908L320.615 -6.75771e-05L315.041 -6.73335e-05L360.252 33.3622L491.547 423.824ZM458.723 472.632L721.934 667.862L853.23 1057.09L853.23 1057.71L1117.06 1253.55L1248.36 1642.78L1248.36 1643.4L1511.57 1838.63L1567.3 2002.97L1567.3 1994.94L1514.04 1836.16L1514.04 1835.54L1250.83 1640.31L1119.54 1251.08L1119.54 1250.47L856.326 1055.23L725.031 666.009L725.031 665.391L461.82 470.16L330.524 80.9343L330.524 80.3163L223.382 0.617857L217.808 0.617857L328.666 82.7878L458.723 472.632ZM-100.522 132.213L162.689 327.444L293.985 716.67L293.985 717.288L557.195 912.519L688.491 1301.74L688.491 1302.36L951.701 1497.59L1083 1886.82L1083 1887.44L1346.21 2082.67L1477.5 2471.89L1477.5 2472.51L1566.07 2538L1566.07 2534.29L1479.36 2470.04L1348.07 2080.81L1348.07 2080.2L1084.86 1884.97L953.559 1495.74L953.559 1495.12L690.349 1299.89L559.053 910.665L559.053 910.047L295.842 714.816L164.547 325.59L164.547 324.973L-98.6639 129.742L-142.016 1.23555L-144.493 1.23555L-100.522 132.213ZM-34.874 34.5979L228.337 229.828L359.632 619.054L359.632 619.672L622.843 814.903L754.139 1204.13L754.139 1204.75L1017.35 1399.98L1148.65 1789.2L1148.65 1789.82L1411.86 1985.05L1543.15 2374.28L1543.15 2374.9L1565.45 2391.58L1565.45 2387.87L1544.39 2372.43L1413.09 1983.2L1413.09 1982.58L1149.88 1787.35L1018.59 1398.12L1018.59 1397.51L755.377 1202.28L624.082 813.05L624.082 812.432L360.871 617.201L229.575 227.975L229.575 227.357L-33.6354 32.1264L-44.1638 1.23554L-46.6411 1.23554L-34.874 34.5979ZM-67.698 83.4055L195.513 278.636L326.808 667.862L326.808 668.48L590.638 863.093L721.934 1252.32L721.934 1252.94L985.764 1448.17L1117.06 1837.39L1117.06 1838.01L1380.27 2033.24L1511.57 2422.47L1511.57 2423.09L1567.31 2464.48L1567.31 2460.77L1513.42 2421.23L1382.13 2032.01L1382.13 2031.39L1118.92 1836.16L987.622 1446.93L987.622 1446.31L724.411 1251.08L593.116 861.858L593.116 861.24L329.905 666.009L198.609 276.783L198.609 276.165L-65.84 80.9343L-92.4707 1.23555L-94.948 1.23555L-67.698 83.4055ZM-199.613 278.636L64.2171 473.249L195.513 862.475L195.513 863.093L458.723 1058.32L590.638 1448.17L590.638 1448.79L853.849 1644.02L985.145 2033.24L985.145 2033.86L1248.36 2229.09L1379.65 2618.32L1379.65 2618.94L1566.69 2757.33L1566.69 2753.62L1381.51 2616.46L1250.21 2227.24L1250.21 2226.62L987.003 2031.39L855.707 1642.16L855.707 1641.55L592.496 1446.31L461.201 1057.09L461.201 1056.47L197.99 861.24L66.6944 472.014L66.6944 471.396L-196.516 276.165L-289.414 1.85372L-291.891 1.85372L-199.613 278.636ZM-298.085 423.824L-34.874 619.672L96.4217 1008.9L96.4217 1009.52L359.632 1204.75L490.928 1593.97L490.928 1594.59L754.139 1789.82L885.434 2179.05L885.434 2179.67L1149.88 2374.9L1281.18 2764.12L1281.18 2764.74L1544.39 2959.97L1566.69 3026.7L1566.69 3018.66L1546.25 2957.5L1546.25 2956.88L1283.04 2761.65L1151.74 2372.43L1151.74 2371.81L888.531 2176.58L757.235 1787.35L757.235 1786.73L494.025 1591.5L362.729 1202.28L362.729 1201.66L99.5183 1006.43L-31.7774 617.201L-31.7774 616.583L-294.988 421.352L-426.284 32.1264L-426.284 31.5088L-467.778 0.617887L-474.591 0.617887L-429.38 33.9799L-298.085 423.824ZM-166.17 229.828L97.041 425.059L228.337 814.285L228.337 814.903L491.547 1009.52L622.843 1398.74L622.843 1399.36L886.054 1594.59L1017.35 1983.82L1017.35 1984.43L1280.56 2179.67L1411.86 2568.89L1411.86 2569.51L1567.31 2683.81L1567.31 2680.1L1414.95 2567.04L1283.66 2177.81L1283.66 2177.19L1020.45 1981.96L889.15 1592.74L889.15 1592.12L625.94 1396.89L494.644 1007.66L494.644 1007.05L231.433 811.814L100.138 422.588L100.138 421.97L-164.931 226.739L-241.107 0.617877L-243.585 0.617877L-166.17 229.828ZM689.11 132.213L952.321 327.444L1083.62 716.67L1083.62 717.288L1346.83 912.519L1478.12 1301.74L1478.12 1302.36L1567.3 1367.85L1567.3 1364.14L1480.6 1299.89L1349.3 910.665L1349.3 910.047L1086.09 714.816L954.798 325.59L954.798 324.973L691.587 129.742L648.235 1.23551L645.758 1.23551L689.11 132.213ZM-462.824 83.4055L-331.528 472.632L-331.528 473.249L-68.3173 668.48L62.9785 1057.71L62.9785 1058.32L326.189 1253.55L457.485 1642.78L457.485 1643.4L720.695 1838.63L851.991 2227.86L851.991 2228.47L1117.06 2423.7L1248.36 2812.93L1248.36 2813.55L1511.57 3008.78L1567.31 3173.12L1567.31 3165.09L1514.04 3006.31L1514.04 3005.69L1250.83 2810.46L1119.54 2421.23L1119.54 2420.62L856.326 2225.38L725.031 1836.16L725.031 1835.54L461.82 1640.31L330.524 1251.08L330.524 1250.47L67.3137 1055.23L-63.982 666.009L-63.982 665.391L-327.193 470.16L-458.488 80.9343L-458.488 80.3164L-565.631 0.617891L-573.682 0.617892L-462.824 83.4055ZM-133.346 181.021L129.865 376.252L261.161 765.478L261.161 766.096L524.371 961.326L655.667 1350.55L655.667 1351.17L918.878 1546.4L1050.17 1935.63L1050.17 1936.25L1313.38 2131.48L1444.68 2520.7L1444.68 2521.32L1566.07 2610.9L1566.07 2607.2L1446.54 2518.85L1315.24 2129.62L1315.24 2129L1052.03 1933.77L920.736 1544.55L920.736 1543.93L657.525 1348.7L526.229 959.473L526.229 958.855L263.019 763.624L131.723 374.398L131.723 373.781L-131.488 178.55L-191.562 1.23555L-194.039 1.23555L-133.346 181.021ZM1380.27 278.636L1567.3 417.028L1567.3 413.321L1382.13 276.165L1289.23 1.85365L1286.75 1.85365L1380.27 278.636ZM1413.09 229.828L1567.3 344.125L1567.3 340.418L1414.95 227.357L1338.78 1.23548L1336.3 1.23548L1413.09 229.828ZM1314.62 375.634L1567.3 562.833L1567.3 559.126L1315.86 373.163L1190.14 1.23549L1187.66 1.23549L1314.62 375.634ZM1445.92 181.021L1567.3 270.604L1567.3 266.898L1447.78 178.549L1387.7 1.23548L1385.22 1.23548L1445.92 181.021ZM1281.18 423.824L1544.39 619.054L1566.69 685.779L1566.69 677.747L1546.25 616.583L1546.25 615.965L1283.04 420.735L1151.74 31.5087L1151.74 30.8908L1110.25 -0.000102093L1104.67 -0.000101849L1149.88 33.3622L1281.18 423.824ZM1545.01 34.5978L1567.3 51.2789L1567.3 47.5719L1546.25 32.1263L1535.72 1.23548L1533.24 1.23548L1545.01 34.5978ZM1512.19 83.4054L1567.92 124.799L1567.92 121.092L1514.04 81.5519L1487.41 1.85364L1484.94 1.85364L1512.19 83.4054ZM656.286 181.021L919.497 376.252L1050.79 765.478L1050.79 766.096L1314 961.326L1445.3 1350.55L1445.3 1351.17L1566.69 1440.75L1566.69 1437.05L1447.16 1348.7L1315.86 959.473L1315.86 958.855L1052.65 763.624L921.355 374.398L921.355 373.78L658.144 178.549L598.07 1.23552L595.593 1.23552L656.286 181.021ZM1479.36 132.213L1567.92 197.702L1567.92 193.995L1481.22 129.742L1437.87 1.23548L1435.39 1.23548L1479.36 132.213ZM1248.36 472.632L1511.57 667.862L1567.3 832.202L1567.3 824.171L1514.04 665.391L1514.04 664.773L1250.83 469.542L1119.54 80.3163L1119.54 79.6986L1012.39 -9.78158e-05L1006.82 -9.75721e-05L1117.06 83.4054L1248.36 472.632ZM557.814 326.826L821.025 522.057L952.321 911.283L952.321 911.901L1215.53 1107.13L1346.83 1496.36L1346.83 1496.98L1566.69 1660.08L1566.69 1656.37L1348.69 1494.5L1217.39 1105.28L1217.39 1104.66L954.179 909.429L822.883 520.203L822.883 519.586L559.672 324.355L450.672 1.23552L448.195 1.23552L557.814 326.826ZM623.462 229.828L886.673 425.059L1017.97 814.285L1017.97 814.903L1281.8 1009.52L1413.09 1398.74L1413.09 1399.36L1567.3 1513.66L1567.3 1509.95L1414.95 1396.89L1283.66 1007.66L1283.66 1007.05L1020.45 811.814L889.15 422.588L889.15 421.97L625.94 226.739L549.763 0.617842L547.286 0.617843L623.462 229.828ZM590.638 278.636L853.849 473.867L985.145 863.093L985.145 863.711L1248.36 1058.94L1379.65 1448.17L1379.65 1448.79L1566.69 1587.18L1566.69 1583.47L1381.51 1446.31L1250.21 1057.09L1250.21 1056.47L987.003 861.24L855.707 472.014L855.707 471.396L592.496 276.165L499.598 1.85368L497.121 1.85368L590.638 278.636ZM524.99 375.634L788.201 570.865L919.497 960.091L919.497 960.709L1182.71 1155.94L1314 1545.17L1314 1545.78L1566.69 1732.98L1566.69 1729.28L1315.24 1543.31L1183.95 1154.09L1183.95 1153.47L920.736 958.237L789.44 569.011L789.44 568.394L526.229 373.163L400.507 1.23552L398.03 1.23552L524.99 375.634ZM1215.53 521.439L1478.74 716.67L1567.3 978.625L1567.3 970.594L1480.6 714.199L1480.6 713.581L1217.39 518.35L1086.09 129.124L1086.09 128.506L912.684 -9.34573e-05L907.111 -9.32137e-05L1084.24 132.213L1215.53 521.439ZM1182.71 570.247L1445.92 765.478L1567.3 1125.05L1567.3 1117.02L1447.78 763.624L1447.78 763.007L1184.57 567.776L1053.27 178.549L1053.27 177.932L814.213 0.617831L808.639 0.617831L1051.41 180.403L1182.71 570.247ZM1347.45 326.826L1567.3 489.93L1567.3 486.223L1349.3 324.355L1240.3 1.23549L1237.83 1.23549L1347.45 326.826ZM295.843 3054.5L164.547 2665.27L164.547 2664.65L-98.6638 2469.42L-229.959 2080.2L-229.959 2079.58L-493.17 1884.35L-624.466 1495.12L-624.466 1494.5L-646.761 1477.82L-646.761 1481.53L-625.704 1496.98L-494.409 1886.2L-494.409 1886.82L-231.198 2082.05L-99.9024 2471.28L-99.9024 2471.89L163.308 2667.13L294.604 3056.35L294.604 3056.97L557.815 3252.2L568.343 3283.09L570.82 3283.09L559.673 3249.73L295.843 3054.5ZM625.32 3152.11L362.11 2956.88L230.814 2567.66L230.814 2567.04L-32.3966 2371.81L-163.692 1982.58L-163.692 1981.96L-426.903 1786.73L-558.199 1397.51L-558.199 1396.89L-648 1331.4L-648 1335.11L-561.295 1399.36L-430 1788.59L-430 1789.2L-166.789 1984.44L-35.4932 2373.66L-35.4932 2374.28L227.717 2569.51L359.013 2958.74L359.013 2959.35L622.224 3154.58L665.576 3283.09L668.053 3283.09L625.32 3152.11ZM855.707 2811.69L592.496 2616.46L461.201 2227.24L461.201 2226.62L197.99 2031.39L66.6944 1642.16L66.6944 1641.55L-196.516 1446.31L-327.812 1057.09L-327.812 1056.47L-592.261 860.622L-648 696.282L-648 704.314L-594.739 863.093L-594.739 863.711L-331.528 1058.94L-200.232 1448.17L-200.232 1448.79L64.2172 1643.4L195.513 2032.62L195.513 2033.24L458.723 2228.47L590.019 2617.7L590.019 2618.32L853.849 2813.55L985.145 3202.77L985.145 3203.39L1092.91 3283.09L1098.48 3283.09L987.003 3200.92L855.707 2811.69ZM822.883 2859.88L559.673 2664.65L428.377 2275.43L428.377 2274.81L165.166 2079.58L33.8705 1690.35L33.8705 1689.74L-229.34 1494.5L-360.636 1105.28L-360.636 1104.66L-623.847 909.43L-648 842.705L-648 850.737L-627.562 911.901L-627.562 912.519L-364.352 1107.75L-233.056 1496.98L-233.056 1497.59L30.1546 1692.82L161.45 2082.05L161.45 2082.67L424.661 2277.9L555.957 2667.13L555.957 2667.74L819.167 2862.97L950.463 3252.2L950.463 3252.82L991.957 3283.71L997.531 3283.71L952.321 3250.35L822.883 2859.88ZM-648 3183L-648 3190.42L-627.562 3251.58L-626.943 3252.2L-585.449 3283.09L-579.875 3283.09L-625.085 3249.73L-648 3183ZM723.792 3005.69L460.582 2811.08L329.286 2421.85L329.286 2421.23L66.0751 2226L-65.2206 1836.78L-65.2206 1836.16L-328.431 1640.93L-459.727 1251.7L-459.727 1251.08L-648 1112.07L-648 1115.78L-462.824 1252.94L-331.528 1642.16L-331.528 1642.78L-68.3172 1838.01L62.9785 2227.24L62.9785 2227.86L326.189 2423.09L457.485 2812.31L457.485 2812.93L720.696 3008.16L814.832 3283.09L817.309 3283.09L723.792 3005.69ZM690.968 3054.5L427.758 2859.27L296.462 2470.04L296.462 2469.42L33.2512 2274.19L-98.0445 1884.97L-98.0445 1884.35L-361.255 1689.12L-492.551 1299.89L-492.551 1299.27L-648 1185.59L-648 1189.3L-495.647 1302.36L-364.352 1691.59L-364.352 1692.21L-101.141 1887.44L30.1546 2276.66L30.1546 2277.28L293.365 2472.51L424.661 2861.74L424.661 2862.36L687.872 3057.59L765.286 3283.09L767.764 3283.09L690.968 3054.5ZM658.144 3103.31L394.934 2908.07L263.638 2518.85L263.638 2518.23L0.427265 2323L-130.868 1933.77L-130.868 1933.16L-395.318 1738.54L-526.613 1349.32L-526.613 1348.7L-648 1258.5L-648 1262.2L-528.471 1350.55L-397.176 1739.78L-397.176 1740.4L-133.346 1936.25L-2.04997 2325.47L-2.04997 2326.09L261.161 2521.32L392.456 2910.55L392.456 2911.16L655.667 3106.39L716.36 3283.09L718.838 3283.09L658.144 3103.31ZM1414.95 3152.11L1151.74 2956.88L1020.45 2567.66L1020.45 2567.04L757.235 2371.81L625.94 1982.58L625.94 1981.96L362.729 1786.73L231.433 1397.51L231.433 1396.89L-31.7774 1201.66L-163.073 812.432L-163.073 811.814L-426.284 616.583L-557.579 227.357L-557.579 226.739L-648 161.251L-648 164.958L-561.295 229.211L-430 618.437L-430 619.054L-166.789 814.285L-35.4933 1203.51L-35.4933 1204.13L227.717 1399.36L359.013 1788.59L359.013 1789.2L622.224 1984.43L753.519 2373.66L753.519 2374.28L1016.73 2569.51L1148.03 2958.74L1148.03 2959.35L1411.24 3154.58L1454.59 3283.09L1457.07 3283.09L1414.95 3152.11ZM1382.13 3200.92L1118.92 3005.69L987.622 2616.46L987.622 2615.85L724.411 2420.62L593.116 2031.39L593.116 2030.77L329.905 1835.54L198.609 1446.31L198.609 1445.7L-65.8399 1251.08L-197.136 861.858L-197.136 861.24L-460.346 666.009L-591.642 276.783L-591.642 276.165L-647.381 234.771L-647.381 238.478L-593.5 278.019L-462.204 667.245L-462.204 667.862L-198.994 863.093L-67.6979 1252.32L-67.6979 1252.94L195.513 1448.17L326.808 1837.39L326.808 1838.01L590.638 2033.24L721.934 2422.47L721.934 2423.09L985.145 2618.32L1116.44 3007.54L1116.44 3008.16L1379.65 3203.39L1407.52 3283.09L1410 3283.09L1382.13 3200.92ZM1086.09 3054.5L954.798 2665.27L954.798 2664.65L691.587 2469.42L560.292 2080.2L560.292 2079.58L297.081 1884.35L165.785 1495.12L165.785 1494.5L-97.4252 1299.27L-228.721 910.047L-228.721 909.43L-491.932 714.199L-623.227 324.973L-623.227 324.355L-645.523 307.674L-645.523 311.381L-624.466 326.826L-493.17 716.052L-493.17 716.67L-229.96 911.901L-98.6638 1301.13L-98.6638 1301.74L164.547 1496.98L295.842 1886.2L295.842 1886.82L559.053 2082.05L690.349 2471.28L690.349 2471.89L953.56 2667.13L1084.86 3056.35L1084.86 3056.97L1347.45 3252.2L1357.97 3283.09L1360.45 3283.09L1349.3 3249.73L1086.09 3054.5ZM888.531 2762.89L625.32 2567.66L494.025 2178.43L494.025 2177.81L230.814 1982.58L99.5183 1593.36L99.5183 1592.74L-164.931 1396.89L-296.227 1007.66L-296.227 1007.05L-559.437 811.814L-648 549.859L-648 557.89L-561.295 814.285L-561.295 814.903L-298.085 1009.52L-166.789 1398.74L-166.789 1399.36L96.4217 1594.59L227.717 1983.82L227.717 1984.43L359.632 2082.05L491.547 2179.67L622.843 2568.89L622.843 2569.51L886.054 2764.74L1017.35 3153.97L1017.35 3154.58L1191.38 3283.09L1196.95 3283.09L1020.45 3152.11L888.531 2762.89ZM1480.6 3054.5L1217.39 2859.27L1086.09 2470.04L1086.09 2469.42L822.883 2274.19L691.587 1884.97L691.587 1884.35L428.377 1689.12L297.081 1299.89L297.081 1299.27L33.8704 1104.04L-97.4252 714.816L-97.4252 714.199L-360.636 518.968L-491.932 129.742L-491.932 129.124L-648 15.4453L-648 19.1526L-495.647 132.213L-364.352 521.439L-364.352 522.057L-101.141 717.288L30.1546 1106.51L30.1546 1107.13L293.365 1302.36L424.661 1691.59L424.661 1692.21L687.872 1887.44L819.167 2276.66L819.167 2277.28L1082.38 2472.51L1213.67 2861.74L1213.67 2862.36L1476.88 3057.59L1555.54 3283.09L1558.02 3283.09L1480.6 3054.5ZM921.355 2714.08L658.144 2518.85L526.849 2129.62L526.849 2129L263.638 1933.77L132.342 1544.55L132.342 1543.93L-130.868 1348.7L-262.164 959.473L-262.164 958.855L-525.375 763.624L-648 404.053L-648 412.085L-528.471 765.478L-528.471 766.096L-265.261 961.326L-133.965 1350.55L-133.965 1351.17L129.246 1546.4L260.541 1935.63L260.541 1936.25L523.752 2131.48L655.048 2520.7L655.048 2521.32L918.258 2716.55L1049.55 3105.78L1049.55 3106.39L1290.47 3283.09L1296.04 3283.09L1053.27 3103.31L921.355 2714.08ZM756.616 2956.88L493.405 2761.65L362.11 2372.43L362.11 2371.81L98.899 2176.58L-32.3967 1787.35L-32.3967 1786.73L-295.607 1591.5L-426.903 1202.28L-426.903 1201.66L-648 1039.17L-648 1042.88L-430 1204.75L-298.704 1593.97L-298.704 1594.59L-34.8739 1789.82L96.4217 2179.05L96.4217 2179.67L360.252 2374.9L491.547 2764.12L491.547 2764.74L754.758 2959.97L864.378 3283.09L866.855 3283.09L756.616 2956.88ZM1447.78 3103.31L1184.57 2908.07L1053.27 2518.85L1053.27 2518.23L790.059 2323L658.764 1933.77L658.764 1933.16L395.553 1737.93L264.257 1348.7L264.257 1348.08L1.0466 1152.85L-130.249 763.624L-130.249 763.007L-393.46 567.776L-524.755 178.55L-524.755 177.932L-648 88.3484L-648 92.0552L-528.471 180.403L-397.176 569.629L-397.176 570.247L-133.965 765.478L-2.6694 1154.7L-2.6694 1155.32L260.541 1350.55L391.837 1739.78L391.837 1740.4L656.286 1936.25L787.582 2325.47L787.582 2326.09L1050.79 2521.32L1182.09 2910.55L1182.09 2911.16L1445.3 3106.39L1505.99 3283.09L1508.47 3283.09L1447.78 3103.31ZM592.496 3200.92L329.286 3005.69L197.99 2616.46L197.99 2615.85L-65.8399 2420.62L-197.136 2031.39L-197.136 2030.77L-460.346 1835.54L-591.642 1446.31L-591.642 1445.7L-647.381 1404.3L-647.381 1408.01L-594.119 1448.17L-462.824 1837.39L-462.824 1838.01L-199.613 2033.24L-68.3172 2422.47L-68.3172 2423.09L194.894 2618.32L326.189 3007.54L326.189 3008.16L590.639 3203.39L617.269 3283.09L619.746 3283.09L592.496 3200.92ZM-131.488 3103.31L-394.698 2908.07L-525.994 2518.85L-525.994 2518.23L-648 2428.65L-648 2432.35L-528.471 2520.7L-397.176 2909.93L-397.176 2910.55L-133.346 3105.78L-73.891 3283.09L-71.4137 3283.09L-131.488 3103.31ZM-65.8399 3005.69L-329.05 2810.46L-460.346 2421.23L-460.346 2420.62L-648 2282.22L-648 2285.93L-462.823 2423.09L-331.528 2812.31L-331.528 2812.93L-67.6978 3008.78L25.2001 3283.09L27.6774 3283.09L-65.8399 3005.69ZM-33.0159 2956.88L-296.227 2761.65L-427.522 2372.43L-427.522 2371.81L-648 2209.32L-648 2213.03L-430 2374.9L-298.085 2764.12L-298.085 2764.74L-34.8739 2959.97L74.1263 3283.09L76.6036 3283.09L-33.0159 2956.88ZM-98.6638 3054.5L-361.874 2859.27L-493.17 2470.04L-493.17 2469.42L-648 2355.13L-648 2358.83L-495.647 2471.89L-364.352 2861.12L-364.352 2861.74L-100.522 3056.97L-24.3455 3283.09L-21.8682 3283.09L-98.6638 3054.5ZM-0.192033 2908.69L-263.403 2713.46L-394.698 2324.24L-394.698 2323.62L-648 2135.8L-648 2140.13L-396.556 2326.09L-265.261 2715.32L-265.261 2715.93L-2.04994 2911.16L123.672 3283.09L126.149 3283.09L-0.192033 2908.69ZM-648 3036.58L-648 3044.61L-594.738 3202.77L-594.738 3203.39L-486.977 3283.09L-481.403 3283.09L-592.261 3200.92L-648 3036.58ZM-648 2743.73L-648 2751.77L-528.471 3105.78L-528.471 3106.39L-289.414 3283.09L-283.84 3283.09L-526.613 3103.31L-648 2743.73ZM-648 2890.16L-648 2898.19L-561.295 3153.97L-561.295 3154.58L-387.886 3283.09L-382.312 3283.09L-558.818 3152.11L-648 2890.16ZM33.2512 2859.88L-229.959 2664.65L-361.255 2275.43L-361.255 2274.81L-624.466 2079.58L-648 2012.85L-648 2020.89L-627.562 2082.05L-627.562 2082.67L-364.352 2277.9L-233.056 2667.13L-233.056 2667.74L30.1546 2862.97L161.45 3252.2L161.45 3252.82L202.945 3283.71L208.519 3283.71L163.308 3250.35L33.2512 2859.88ZM-164.931 3152.11L-428.142 2956.88L-559.437 2567.66L-559.437 2567.04L-648 2501.55L-648 2505.26L-561.295 2569.51L-430 2958.74L-430 2959.35L-166.17 3154.58L-122.817 3283.09L-120.34 3283.09L-164.931 3152.11ZM131.723 2714.08L-131.488 2518.85L-262.783 2129.62L-262.783 2129L-525.994 1933.77L-648 1574.2L-648 1582.23L-528.471 1935.63L-528.471 1936.25L-265.261 2131.48L-133.965 2520.7L-133.965 2521.32L129.246 2716.55L260.541 3105.78L260.541 3106.39L500.218 3283.09L505.792 3283.09L263.019 3103.31L131.723 2714.08ZM66.0752 2811.69L-197.755 2615.85L-329.051 2226.62L-329.051 2226L-592.261 2030.77L-648 1866.43L-648 1874.46L-594.738 2033.24L-594.738 2033.86L-331.528 2229.09L-200.232 2618.32L-200.232 2618.94L64.2172 2813.55L195.513 3202.77L195.513 3203.39L303.274 3283.09L308.848 3283.09L197.99 3200.92L66.0752 2811.69ZM98.899 2762.89L-164.931 2567.04L-296.227 2177.81L-296.227 2177.19L-559.437 1981.96L-648 1720.01L-648 1728.04L-561.295 1984.44L-561.295 1985.05L-298.085 2180.28L-166.789 2569.51L-166.789 2570.13L96.4217 2765.36L227.717 3154.58L227.717 3155.2L401.746 3283.09L407.32 3283.09L230.814 3152.11L98.899 2762.89ZM-197.755 3200.92L-460.965 3005.69L-592.261 2616.46L-592.261 2615.85L-648 2574.45L-648 2578.78L-594.119 2618.32L-462.823 3007.54L-462.823 3008.16L-199.613 3203.39L-172.363 3283.09L-169.885 3283.09L-197.755 3200.92ZM-493.789 3054.5L-625.085 2665.27L-625.085 2664.65L-647.381 2647.97L-647.381 2651.68L-626.324 2667.13L-495.028 3056.35L-495.028 3056.97L-232.437 3252.2L-221.908 3283.09L-219.431 3283.09L-230.579 3249.73L-493.789 3054.5ZM790.059 2908.69L526.849 2713.46L395.553 2324.24L395.553 2323.62L132.342 2128.39L1.04662 1739.16L1.04662 1738.54L-262.164 1543.31L-393.46 1154.09L-393.46 1153.47L-648 965.651L-648 969.358L-396.556 1155.32L-265.261 1544.55L-265.261 1545.17L-2.04999 1740.4L129.246 2129.62L129.246 2130.24L392.456 2325.47L523.752 2714.7L523.752 2715.32L786.963 2910.55L913.304 3283.09L915.781 3283.09L790.059 2908.69Z" fill="#CCCCCC"/>
</svg>
